<svg width="16" height="15" viewBox="0 0 16 15" fill="none" xmlns="http://www.w3.org/2000/svg">
<g clip-path="url(#clip0_1178_157)">
<path d="M13.2334 3.28271V6.68768C13.2334 11.8806 8.83219 13.6019 7.94977 13.8944C7.76275 13.9579 7.56 13.9579 7.37298 13.8944C6.49011 13.6019 2.08936 11.8802 2.08936 6.68768V3.28271C2.08968 3.03651 2.18762 2.80048 2.36171 2.62639C2.5358 2.4523 2.77182 2.35436 3.01802 2.35404H4.30995L5.54769 1.9225C5.61008 1.90075 5.67007 1.87266 5.72672 1.83867L7.40789 0.829967C7.46455 0.795975 7.53464 0.793283 7.59373 0.82283L9.60349 1.82771C9.68585 1.86889 9.77367 1.89808 9.86429 1.91441L12.3047 2.35404C12.5509 2.35436 12.7869 2.4523 12.961 2.62639C13.1351 2.80048 13.2331 3.03651 13.2334 3.28271Z" fill="white"/>
</g>
<defs>
<clipPath id="clip0_1178_157">
<rect width="14.8587" height="14.8587" fill="white" transform="translate(0.232422 0.0302734)"/>
</clipPath>
</defs>
</svg>
