<svg width="16" height="15" viewBox="0 0 16 15" fill="none" xmlns="http://www.w3.org/2000/svg">
<g clip-path="url(#clip0_1178_167)">
<path d="M13.2329 3.28271V6.68768C13.2329 11.8806 8.8317 13.6019 7.94928 13.8944C7.76226 13.9579 7.55951 13.9579 7.37249 13.8944C6.48962 13.6019 2.08887 11.8802 2.08887 6.68768V3.28271C2.08919 3.03651 2.18713 2.80048 2.36122 2.62639C2.53531 2.4523 2.77134 2.35436 3.01754 2.35404H4.30946L5.54721 1.9225C5.60959 1.90075 5.66958 1.87266 5.72623 1.83867L7.40741 0.829967C7.46406 0.795975 7.53415 0.793283 7.59325 0.82283L9.603 1.82771C9.68536 1.86889 9.77318 1.89808 9.8638 1.91441L12.3042 2.35404C12.5504 2.35436 12.7865 2.4523 12.9605 2.62639C13.1346 2.80048 13.2326 3.03651 13.2329 3.28271Z" fill="white" fill-opacity="0.65"/>
</g>
<defs>
<clipPath id="clip0_1178_167">
<rect width="14.8587" height="14.8587" fill="white" transform="translate(0.231934 0.0292969)"/>
</clipPath>
</defs>
</svg>
