<svg width="19" height="17" viewBox="0 0 19 17" fill="none" xmlns="http://www.w3.org/2000/svg">
<g filter="url(#filter0_d_296_103)">
<path fill-rule="evenodd" clip-rule="evenodd" d="M3 4.51935C3 3.12795 4.13405 2 5.53297 2H13.667C15.0659 2 16.2 3.12795 16.2 4.51935V6.30939L3 6.20333V4.51935ZM12.8422 5.26415C13.2362 5.26415 13.5557 4.94642 13.5557 4.55447C13.5557 4.16253 13.2362 3.8448 12.8422 3.8448C12.7122 3.8448 12.5904 3.87936 12.4854 3.93974C12.3805 3.87936 12.2586 3.8448 12.1287 3.8448C11.7346 3.8448 11.4151 4.16253 11.4151 4.55447C11.4151 4.94642 11.7346 5.26415 12.1287 5.26415C12.2586 5.26415 12.3805 5.22959 12.4854 5.16921C12.5904 5.22959 12.7122 5.26415 12.8422 5.26415Z" fill="white"/>
<path fill-rule="evenodd" clip-rule="evenodd" d="M3 7.26788V10.4806C3 11.872 4.13405 13 5.53297 13H13.667C15.0659 13 16.2 11.872 16.2 10.4806V7.37394L3 7.26788ZM5.1719 10.2319C5.1719 9.93794 5.41148 9.69964 5.70703 9.69964H7.49081C7.78636 9.69964 8.02595 9.93794 8.02595 10.2319C8.02595 10.5259 7.78636 10.7642 7.49081 10.7642H5.70703C5.41148 10.7642 5.1719 10.5259 5.1719 10.2319Z" fill="white"/>
</g>
<defs>
<filter id="filter0_d_296_103" x="0.8" y="0.9" width="17.5992" height="15.4" filterUnits="userSpaceOnUse" color-interpolation-filters="sRGB">
<feFlood flood-opacity="0" result="BackgroundImageFix"/>
<feColorMatrix in="SourceAlpha" type="matrix" values="0 0 0 0 0 0 0 0 0 0 0 0 0 0 0 0 0 0 127 0" result="hardAlpha"/>
<feOffset dy="1.1"/>
<feGaussianBlur stdDeviation="1.1"/>
<feComposite in2="hardAlpha" operator="out"/>
<feColorMatrix type="matrix" values="0 0 0 0 0 0 0 0 0 0 0 0 0 0 0 0 0 0 0.1 0"/>
<feBlend mode="normal" in2="BackgroundImageFix" result="effect1_dropShadow_296_103"/>
<feBlend mode="normal" in="SourceGraphic" in2="effect1_dropShadow_296_103" result="shape"/>
</filter>
</defs>
</svg>
