<svg width="20" height="18" viewBox="0 0 20 18" fill="none" xmlns="http://www.w3.org/2000/svg">
<g clip-path="url(#clip0_1178_172)">
<path d="M17.6084 3.8985C15.923 2.21314 13.4121 1.86919 11.3484 2.83225L10.4542 1.93798C10.1102 1.59402 9.52549 1.59402 9.14715 1.93798L9.07836 2.00677C8.97517 1.14689 8.21848 0.458984 7.28981 0.458984C6.29235 0.458984 5.46686 1.28447 5.46686 2.28193C5.46686 2.35072 5.46686 2.4539 5.50126 2.52269C4.91654 2.86665 4.53819 3.45136 4.53819 4.13927C4.53819 4.55201 4.67577 4.93036 4.91654 5.23991C4.71017 5.41189 4.53819 5.65265 4.53819 5.96221V7.20044C2.40569 7.95713 0.85791 9.98645 0.85791 12.3941C0.85791 15.4209 3.33436 17.8973 6.36114 17.8973C9.38791 17.8973 11.8644 15.4209 11.8644 12.3941C11.8644 9.98645 10.3166 7.95713 8.18408 7.20044V5.96221C8.18408 5.65265 8.01211 5.41189 7.80573 5.23991C8.0465 4.93036 8.18408 4.55201 8.18408 4.13927C8.18408 4.07048 8.18408 3.96729 8.14969 3.8985C8.32166 3.79532 8.45924 3.69213 8.56243 3.55455C9.42231 4.00169 10.007 4.89596 10.007 5.96221V6.031C10.1102 6.09979 10.2478 6.20298 10.351 6.27177C10.523 5.89342 10.7637 5.51507 11.0733 5.20552C12.5179 3.76092 14.8223 3.76092 16.2669 5.20552C17.7115 6.65011 17.7115 8.95459 16.2669 10.3992C15.579 11.1215 14.616 11.4654 13.6529 11.4654C13.7217 11.775 13.7217 12.0846 13.7217 12.3941C13.7217 12.7037 13.6873 13.0132 13.6529 13.3228C15.0975 13.3228 16.5077 12.8068 17.6084 11.7062C19.7409 9.53931 19.7409 6.0654 17.6084 3.8985ZM7.28981 1.38765C7.80573 1.38765 8.21848 1.8004 8.21848 2.31632C8.21848 2.62588 8.0465 2.86665 7.84013 3.03862C7.49618 2.59148 6.98025 2.31632 6.39553 2.31632C6.36114 1.8004 6.77388 1.38765 7.28981 1.38765ZM5.84521 3.41697C6.18916 3.86411 6.70509 4.13927 7.28981 4.13927C7.28981 4.65519 6.87706 5.06794 6.36114 5.06794C5.84521 5.06794 5.43247 4.65519 5.43247 4.13927C5.46686 3.82971 5.60444 3.55455 5.84521 3.41697ZM10.0414 12.3941C10.0414 14.4234 8.39045 16.0744 6.36114 16.0744C4.33182 16.0744 2.68085 14.4234 2.68085 12.3941C2.68085 10.3648 4.33182 8.71382 6.36114 8.71382C8.39045 8.71382 10.0414 10.3648 10.0414 12.3941Z" fill="white" fill-opacity="0.65"/>
</g>
<defs>
<clipPath id="clip0_1178_172">
<rect width="18.5734" height="17.5415" fill="white" transform="translate(0.755371 0.458984)"/>
</clipPath>
</defs>
</svg>
