<svg width="20" height="18" viewBox="0 0 20 18" fill="none" xmlns="http://www.w3.org/2000/svg">
<g clip-path="url(#clip0_1178_159)">
<path d="M17.6088 3.8985C15.9235 2.21314 13.4126 1.86919 11.3489 2.83225L10.4547 1.93798C10.1107 1.59402 9.52598 1.59402 9.14763 1.93798L9.07884 2.00677C8.97566 1.14689 8.21896 0.458984 7.29029 0.458984C6.29284 0.458984 5.46735 1.28447 5.46735 2.28193C5.46735 2.35072 5.46735 2.4539 5.50175 2.52269C4.91703 2.86665 4.53868 3.45136 4.53868 4.13927C4.53868 4.55201 4.67626 4.93036 4.91703 5.23991C4.71066 5.41189 4.53868 5.65265 4.53868 5.96221V7.20044C2.40618 7.95713 0.858398 9.98645 0.858398 12.3941C0.858398 15.4209 3.33485 17.8973 6.36162 17.8973C9.3884 17.8973 11.8649 15.4209 11.8649 12.3941C11.8649 9.98645 10.3171 7.95713 8.18457 7.20044V5.96221C8.18457 5.65265 8.01259 5.41189 7.80622 5.23991C8.04699 4.93036 8.18457 4.55201 8.18457 4.13927C8.18457 4.07048 8.18457 3.96729 8.15017 3.8985C8.32215 3.79532 8.45973 3.69213 8.56292 3.55455C9.4228 4.00169 10.0075 4.89596 10.0075 5.96221V6.031C10.1107 6.09979 10.2483 6.20298 10.3515 6.27177C10.5234 5.89342 10.7642 5.51507 11.0738 5.20552C12.5184 3.76092 14.8228 3.76092 16.2674 5.20552C17.712 6.65011 17.712 8.95459 16.2674 10.3992C15.5795 11.1215 14.6165 11.4654 13.6534 11.4654C13.7222 11.775 13.7222 12.0846 13.7222 12.3941C13.7222 12.7037 13.6878 13.0132 13.6534 13.3228C15.098 13.3228 16.5082 12.8068 17.6088 11.7062C19.7413 9.53931 19.7413 6.0654 17.6088 3.8985ZM7.29029 1.38765C7.80622 1.38765 8.21896 1.8004 8.21896 2.31632C8.21896 2.62588 8.04699 2.86665 7.84062 3.03862C7.49667 2.59148 6.98074 2.31632 6.39602 2.31632C6.36163 1.8004 6.77437 1.38765 7.29029 1.38765ZM5.8457 3.41697C6.18965 3.86411 6.70558 4.13927 7.29029 4.13927C7.29029 4.65519 6.87755 5.06794 6.36162 5.06794C5.8457 5.06794 5.43296 4.65519 5.43296 4.13927C5.46735 3.82971 5.60493 3.55455 5.8457 3.41697ZM10.0419 12.3941C10.0419 14.4234 8.39094 16.0744 6.36162 16.0744C4.33231 16.0744 2.68134 14.4234 2.68134 12.3941C2.68134 10.3648 4.33231 8.71382 6.36162 8.71382C8.39094 8.71382 10.0419 10.3648 10.0419 12.3941Z" fill="white"/>
</g>
<defs>
<clipPath id="clip0_1178_159">
<rect width="18.5734" height="17.5415" fill="white" transform="translate(0.755859 0.458984)"/>
</clipPath>
</defs>
</svg>
