<svg width="24" height="24" viewBox="0 0 24 24" fill="none" xmlns="http://www.w3.org/2000/svg">
<g clip-path="url(#clip0_1180_85)">
<path d="M18.919 6.63478L12.966 22.7148C12.59 23.7308 11.507 24.2528 10.548 23.8798C10.3105 23.7857 10.095 23.6435 9.91518 23.4621C9.73534 23.2807 9.59499 23.0641 9.50295 22.8258L7.61595 18.0558C7.26134 17.1401 6.55837 16.4023 5.66095 16.0038L1.11895 14.0228C0.173955 13.6098 -0.256045 12.4648 0.156955 11.4648C0.254642 11.2233 0.399244 11.0036 0.582393 10.8184C0.765542 10.6332 0.983602 10.4862 1.22395 10.3858L16.54 4.13578C17.507 3.74078 18.58 4.23678 18.935 5.24478C19.092 5.69078 19.086 6.18478 18.92 6.63478H18.919Z" fill="white"/>
</g>
<defs>
<clipPath id="clip0_1180_85">
<rect width="24" height="24" fill="white"/>
</clipPath>
</defs>
</svg>
